<svg xmlns="http://www.w3.org/2000/svg"
    viewBox="15.5874 28.2874 68.69 43.43">

    <path
        d="M18.2,69.1c-3.5-3.5-3.5-9.3,0.1-12.8c1.1-1.1,2.4-1.8,3.8-2.2c2.8-0.8,5.5-2.1,7.8-3.8c1.5-1.1,2.8-2.3,4.1-3.6  c1.3-1.3,2.5-2.7,3.6-4.1c1.7-2.3,3-5,3.8-7.8c0,0,0-0.1,0-0.1c0.1-0.3,0.2-0.5,0.3-0.8c0.1-0.1,0.1-0.3,0.2-0.4  c0.1-0.1,0.1-0.3,0.2-0.4c0.1-0.2,0.2-0.4,0.3-0.6c0-0.1,0.1-0.1,0.1-0.2c0.2-0.3,0.4-0.6,0.7-0.9c0.1-0.1,0.2-0.3,0.3-0.4l0,0  c3.5-3.6,9.3-3.6,12.8-0.1l0.1,0.1c0.1,0.1,0.2,0.2,0.3,0.4c0.3,0.3,0.5,0.6,0.7,0.9c0,0.1,0.1,0.1,0.1,0.2c0.1,0.2,0.2,0.4,0.3,0.6  c0.1,0.1,0.1,0.3,0.2,0.4c0.1,0.1,0.1,0.3,0.2,0.4c0.1,0.3,0.2,0.6,0.3,0.8c0,0,0,0,0,0.1c0.8,2.8,2.1,5.5,3.8,7.8  c1.1,1.5,2.3,2.8,3.6,4.1c1.3,1.3,2.7,2.5,4.1,3.6c2.3,1.7,5,3,7.8,3.8c1.4,0.4,2.7,1.1,3.8,2.2c3.5,3.5,3.6,9.3,0.1,12.8  c-3.5,3.5-9.3,3.5-12.8-0.1c-1.1-1.1-1.8-2.4-2.2-3.8c-0.8-2.8-2.1-5.5-3.8-7.8c-1.1-1.5-2.3-2.8-3.6-4.1c-1.3-1.3-2.7-2.5-4.1-3.6  c-1.6-1.2-3.4-2.2-5.3-2.9c-1.9,0.8-3.7,1.7-5.3,2.9c-1.5,1.1-2.8,2.3-4.1,3.6c-1.3,1.3-2.5,2.7-3.6,4.1c-1.7,2.3-3,5-3.8,7.8  C32.8,66.6,32,67.9,31,69C27.5,72.6,21.7,72.6,18.2,69.1z"
        stroke="@color/purple_500"
        stroke-width="0.1"
        fill="@color/purple_500" />
</svg>